<svg width="256" height="256" viewBox="0 0 256 256" fill="none" xmlns="http://www.w3.org/2000/svg">
<rect width="256" height="256" fill="black"/>
<path d="M130.215 174.873L128.912 175.655C161.829 171.139 184.193 158.806 196.005 138.656C177.419 140.22 162.002 146.299 149.756 156.895C142.374 163.756 137.51 168.099 135.165 169.923C132.994 171.92 131.344 173.571 130.215 174.873ZM167.474 108.953C152.188 119.028 141.462 132.49 135.296 149.339C134.34 154.029 132.994 158.806 131.257 163.669C130.562 167.404 130.041 171.226 129.694 175.134C129.78 174.526 129.867 173.961 129.954 173.44L130.215 174.873C131.344 173.571 132.994 171.92 135.165 169.923C137.51 168.099 142.374 163.756 149.756 156.895C161.394 143.52 167.3 127.539 167.474 108.953ZM171.252 106.869L167.474 108.953C167.3 127.539 161.394 143.52 149.756 156.895C162.002 146.299 177.419 140.22 196.005 138.656C197.221 136.398 198.002 134.835 198.35 133.966C204.429 122.328 207.078 110.777 206.297 99.3124C190.49 100.789 178.808 103.308 171.252 106.869ZM128 97.7491C119.141 112.688 116.753 129.884 120.835 149.339C122.398 153.855 123.657 158.632 124.613 163.669C125.655 166.536 126.784 169.445 128 172.398C129.216 169.445 130.302 166.536 131.257 163.669C132.994 158.806 134.34 154.029 135.296 149.339C139.291 129.884 136.859 112.688 128 97.7491ZM211.899 175.916C218.499 171.486 226.533 162.671 236 149.469C226.533 142.955 215.242 139.394 202.128 138.786L196.005 138.656C184.193 158.806 161.829 171.139 128.912 175.655C161.916 190.68 189.578 190.767 211.899 175.916ZM125.785 174.873C124.656 173.571 123.006 171.92 120.835 169.923C118.49 168.099 113.626 163.756 106.244 156.895C93.9107 146.299 78.4946 140.22 59.9952 138.656C71.7202 158.806 94.0844 171.139 127.088 175.655L125.785 174.873ZM120.835 169.923C123.006 171.92 124.656 173.571 125.785 174.873L125.916 173.44C126.089 173.961 126.22 174.526 126.306 175.134C125.959 171.226 125.394 167.404 124.613 163.669C123.657 158.632 122.398 153.855 120.835 149.339C114.581 132.49 103.812 119.028 88.526 108.953C88.6128 127.539 94.5187 143.52 106.244 156.895C113.626 163.756 118.49 168.099 120.835 169.923ZM59.9952 138.656L53.8721 138.786C40.7576 139.394 29.4668 142.955 20 149.469C29.4668 162.671 37.5006 171.486 44.1013 175.916C66.3354 190.68 93.9976 190.593 127.088 175.655C94.0844 171.139 71.7202 158.806 59.9952 138.656ZM88.526 108.953L84.6176 106.869C77.1484 103.308 65.4668 100.789 49.573 99.3124C48.8782 110.777 51.5272 122.328 57.5199 133.966C57.9542 134.835 58.7793 136.398 59.9952 138.656C78.4946 140.22 93.9107 146.299 106.244 156.895C94.5187 143.52 88.6128 127.539 88.526 108.953ZM128 97.7491C127.218 96.4463 126.48 95.2738 125.785 94.2316C121.356 87.544 112.584 79.4668 99.4693 70C92.9554 79.4668 89.351 90.801 88.6562 104.002L88.526 108.953C103.812 119.028 114.581 132.49 120.835 149.339C116.753 129.884 119.141 112.688 128 97.7491ZM130.215 94.2316C129.433 95.2738 128.695 96.4463 128 97.7491C136.859 112.688 139.291 129.884 135.296 149.339C141.462 132.49 152.188 119.028 167.474 108.953L167.214 104.002C166.606 90.801 163.045 79.4668 156.531 70C143.416 79.4668 134.644 87.544 130.215 94.2316Z" fill="white"/>
<path fill-rule="evenodd" clip-rule="evenodd" d="M194.526 139.293L194.349 139.621L194.834 139.632C183.242 158.398 162.082 170.154 131.221 174.817L131.173 174.551C132.243 173.384 133.68 171.969 135.489 170.305C137.86 168.458 142.733 164.105 150.09 157.267C161.909 147.044 176.712 141.046 194.526 139.293ZM153.194 153.475C164.675 144.825 178.65 139.75 195.096 138.234L195.124 138.182C196.343 135.919 197.098 134.403 197.421 133.595L197.44 133.548L197.463 133.503C203.288 122.354 205.906 111.327 205.36 100.406C190.131 101.89 178.941 104.358 171.707 107.76L167.962 109.826C167.646 126.459 162.724 141.015 153.194 153.475ZM166.949 110.385C166.493 128.236 160.641 143.616 149.397 156.547C142.021 163.402 137.181 167.722 134.858 169.528L134.842 169.541L134.827 169.555C133.273 170.984 131.98 172.241 130.95 173.325L130.938 173.261L130.879 173.262C131.214 170.065 131.668 166.928 132.24 163.852L131.766 163.73C133.488 158.896 134.825 154.144 135.778 149.476C141.745 133.194 151.994 120.1 166.537 110.183L166.559 110.6L166.949 110.385ZM166.476 109.017C152.891 118.151 142.95 130.002 136.66 144.563C139.298 127.308 136.709 111.86 128.869 98.2449L128.882 98.2197C129.556 96.9562 130.268 95.8279 131.015 94.8316L131.032 94.8082L131.048 94.7838C135.281 88.3942 143.652 80.6058 156.28 71.4166C162.31 80.5352 165.632 91.4002 166.215 104.048L166.215 104.055L166.476 109.017ZM171.252 106.869C178.649 103.383 189.998 100.896 205.301 99.4074C205.631 99.3752 205.963 99.3436 206.297 99.3124C206.319 99.6453 206.339 99.9782 206.356 100.311C206.922 111.448 204.253 122.666 198.35 133.966C198.056 134.702 197.45 135.935 196.533 137.667C196.453 137.818 196.371 137.972 196.287 138.131C196.195 138.302 196.102 138.477 196.005 138.656L202.128 138.786C214.862 139.377 225.876 142.751 235.171 148.909C235.449 149.094 235.725 149.28 236 149.469C235.805 149.742 235.61 150.012 235.416 150.281C226.202 163.033 218.363 171.578 211.899 175.916C189.828 190.6 162.536 190.68 130.022 176.155C129.936 176.117 129.851 176.079 129.766 176.041C129.582 175.958 129.398 175.876 129.214 175.792C129.114 175.747 129.013 175.701 128.912 175.655L130.215 174.873L129.954 173.44C129.912 173.693 129.87 173.956 129.828 174.229C129.793 174.454 129.758 174.686 129.724 174.925C129.722 174.938 129.72 174.951 129.718 174.964C129.714 174.989 129.711 175.014 129.707 175.039C129.703 175.071 129.698 175.102 129.694 175.134C129.696 175.103 129.699 175.071 129.702 175.04C129.704 175.015 129.706 174.99 129.709 174.965C129.71 174.95 129.711 174.935 129.713 174.92C129.736 174.665 129.76 174.41 129.784 174.156C129.807 173.923 129.83 173.691 129.854 173.459C129.855 173.447 129.856 173.436 129.857 173.424C129.863 173.372 129.868 173.321 129.873 173.269C130.018 171.873 130.186 170.488 130.375 169.115C130.629 167.28 130.923 165.464 131.257 163.669C130.685 165.386 130.066 167.118 129.401 168.865C129.121 169.598 128.834 170.334 128.538 171.073C128.362 171.514 128.182 171.955 128 172.398C127.818 171.956 127.638 171.515 127.46 171.075C127.152 170.314 126.85 169.556 126.553 168.801C125.876 167.075 125.229 165.365 124.613 163.669C124.985 165.447 125.308 167.245 125.581 169.062C125.788 170.433 125.967 171.816 126.117 173.211C126.123 173.263 126.128 173.315 126.134 173.367C126.137 173.399 126.141 173.43 126.144 173.461C126.168 173.693 126.192 173.925 126.215 174.157C126.24 174.411 126.264 174.665 126.287 174.919C126.287 174.919 126.287 174.919 126.287 174.919C126.291 174.959 126.294 175 126.298 175.04C126.301 175.071 126.304 175.103 126.306 175.134C126.302 175.102 126.297 175.071 126.293 175.039C126.287 175.001 126.281 174.963 126.275 174.924C126.274 174.922 126.274 174.92 126.273 174.918C126.237 174.696 126.195 174.48 126.147 174.27C126.081 173.982 126.004 173.706 125.916 173.44L125.785 174.873L127.088 175.655C126.989 175.7 126.89 175.744 126.792 175.788C126.604 175.873 126.416 175.957 126.229 176.04C126.144 176.078 126.059 176.116 125.974 176.153C93.3765 190.594 66.0855 190.514 44.1013 175.916C37.6369 171.578 29.7979 163.033 20.5844 150.281C20.3902 150.012 20.1954 149.742 20 149.469C20.0001 149.469 20 149.469 20 149.469C20.2748 149.28 20.5513 149.093 20.8291 148.909C30.1239 142.751 41.1383 139.377 53.8721 138.786L59.9952 138.656C59.8985 138.477 59.8042 138.301 59.7125 138.131C59.6275 137.972 59.5446 137.818 59.4639 137.667C58.5356 135.935 57.8876 134.702 57.5199 133.966C51.7013 122.666 49.0349 111.448 49.5209 100.312C49.5355 99.9787 49.5528 99.6455 49.573 99.3124C49.9069 99.3434 50.2389 99.3749 50.5691 99.4069C65.9558 100.895 77.3053 103.382 84.6176 106.869L88.526 108.953L88.6562 104.002C89.3309 91.1842 92.7486 80.1264 98.9094 70.8291C99.0936 70.5512 99.2802 70.2748 99.4693 70C99.7411 70.1962 100.011 70.3919 100.279 70.587C112.946 79.8011 121.448 87.6827 125.785 94.2316C126.3 95.0032 126.838 95.8462 127.4 96.7605C127.501 96.9258 127.604 97.0933 127.707 97.2632C127.804 97.4231 127.902 97.5851 128 97.7491C128.092 97.5765 128.185 97.4063 128.278 97.2383C128.372 97.0707 128.466 96.9055 128.561 96.7425C129.088 95.8351 129.64 94.9981 130.215 94.2316C134.552 87.6827 143.054 79.8011 155.721 70.587C155.989 70.3919 156.259 70.1962 156.531 70C156.72 70.2748 156.906 70.5512 157.091 70.8292C163.249 80.1265 166.623 91.1842 167.214 104.002L167.474 108.953L171.252 106.869ZM127.721 99.2285C119.523 113.749 117.378 130.398 121.318 149.205C122.873 153.703 124.127 158.455 125.082 163.462L125.553 163.328C126.319 165.437 127.134 167.57 127.996 169.727C128.837 167.578 129.608 165.453 130.308 163.353L130.794 163.479C132.52 158.643 133.857 153.897 134.806 149.239C138.665 130.444 136.49 113.804 128.312 99.2883L128.051 99.7781L127.721 99.2285ZM127.131 98.2448C119.291 111.862 116.739 127.312 119.45 144.57C113.091 130.006 103.112 118.153 89.5246 109.017L89.6555 104.042C90.323 91.3972 93.688 80.534 99.7198 71.4165C112.348 80.6057 120.72 88.3942 124.952 94.7838L124.953 94.7863C125.634 95.8079 126.36 96.9604 127.131 98.2448ZM89.4934 110.204C104.033 120.125 114.319 133.223 120.364 149.508C121.915 153.99 123.166 158.733 124.117 163.737L123.634 163.874C124.281 166.964 124.777 170.114 125.124 173.326L125.058 173.334C124.027 172.248 122.731 170.988 121.173 169.555L121.158 169.541L121.142 169.528C118.819 167.722 113.979 163.401 106.603 156.546C95.2698 143.61 89.4158 128.223 89.0439 110.363L89.483 110.597L89.4934 110.204ZM88.0343 109.824C88.2748 126.459 93.1916 141.017 102.787 153.478C91.2446 144.828 77.2772 139.751 60.904 138.235L60.8757 138.182C59.6592 135.923 58.8409 134.372 58.4144 133.519L58.409 133.508C52.6679 122.359 50.0507 111.33 50.5178 100.407C65.8346 101.891 77.0214 104.36 84.1671 107.762L88.0343 109.824ZM105.91 157.268C94.0083 147.045 79.2046 141.048 61.4743 139.294L61.6506 139.621L61.1605 139.632C72.675 158.4 93.8379 170.157 124.786 174.819L124.812 174.534C123.743 173.37 122.311 171.961 120.511 170.305C118.14 168.458 113.268 164.106 105.91 157.268ZM124.365 175.767C93.1253 171.01 71.6257 159.001 60.0056 139.656L53.906 139.786C41.3473 140.37 30.5284 143.692 21.4138 149.722C30.6034 162.437 38.3502 170.851 44.6565 175.084C65.9912 189.25 92.4956 189.588 124.365 175.767ZM131.619 175.768C162.786 171.012 184.289 159.003 195.991 139.656L202.094 139.786C214.653 140.37 225.472 143.692 234.586 149.722C225.396 162.437 217.65 170.852 211.343 175.084C189.921 189.337 163.411 189.675 131.619 175.768Z" fill="white"/>
<path d="M128.912 175.655C161.916 190.68 189.578 190.767 211.899 175.916C218.499 171.486 226.533 162.671 236 149.469C226.533 142.955 215.242 139.394 202.128 138.786L196.005 138.656C184.193 158.806 161.829 171.139 128.912 175.655C128.651 174.179 128.347 173.093 128 172.398C127.653 173.093 127.349 174.179 127.088 175.655C93.9976 190.593 66.3354 190.68 44.1013 175.916C37.5006 171.486 29.4668 162.671 20 149.469C29.4668 142.955 40.7576 139.394 53.8721 138.786L59.9952 138.656C58.7793 136.398 57.9542 134.835 57.5199 133.966C51.5272 122.328 48.8782 110.777 49.573 99.3124C65.4668 100.789 77.1484 103.308 84.6176 106.869L88.526 108.953L88.6562 104.002C89.351 90.801 92.9554 79.4668 99.4693 70C112.584 79.4668 121.356 87.544 125.785 94.2316C126.48 95.2738 127.218 96.4463 128 97.7491C128.695 96.4463 129.433 95.2738 130.215 94.2316C134.644 87.544 143.416 79.4668 156.531 70C163.045 79.4668 166.606 90.801 167.214 104.002L167.474 108.953L171.252 106.869C178.808 103.308 190.49 100.789 206.297 99.3124C207.078 110.777 204.429 122.328 198.35 133.966C198.002 134.835 197.221 136.398 196.005 138.656C177.419 140.22 162.002 146.299 149.756 156.895C142.374 163.756 137.51 168.099 135.165 169.923C132.994 171.92 131.344 173.571 130.215 174.873L128.912 175.655L129.694 175.134C130.041 171.226 130.562 167.404 131.257 163.669C130.302 166.536 129.216 169.445 128 172.398C126.784 169.445 125.655 166.536 124.613 163.669C125.394 167.404 125.959 171.226 126.306 175.134L127.088 175.655C94.0844 171.139 71.7202 158.806 59.9952 138.656C78.4946 140.22 93.9107 146.299 106.244 156.895C94.5187 143.52 88.6128 127.539 88.526 108.953C103.812 119.028 114.581 132.49 120.835 149.339C116.753 129.884 119.141 112.688 128 97.7491C136.859 112.688 139.291 129.884 135.296 149.339C141.462 132.49 152.188 119.028 167.474 108.953C167.3 127.539 161.394 143.52 149.756 156.895M130.215 174.873L129.954 173.44C129.867 173.961 129.78 174.526 129.694 175.134M106.244 156.895C113.626 163.756 118.49 168.099 120.835 169.923C123.006 171.92 124.656 173.571 125.785 174.873L125.916 173.44C126.089 173.961 126.22 174.526 126.306 175.134M127.088 175.655L125.785 174.873ZM135.296 149.339C134.34 154.029 132.994 158.806 131.257 163.669ZM120.835 149.339C122.398 153.855 123.657 158.632 124.613 163.669Z" fill="white"/>
<path d="M130.215 174.873L128.912 175.655M130.215 174.873C131.344 173.571 132.994 171.92 135.165 169.923C137.51 168.099 142.374 163.756 149.756 156.895M130.215 174.873L129.954 173.44M128.912 175.655C161.829 171.139 184.193 158.806 196.005 138.656M128.912 175.655C161.916 190.68 189.578 190.767 211.899 175.916M128.912 175.655C129.013 175.701 129.114 175.747 129.214 175.792C129.398 175.876 129.582 175.958 129.766 176.041C129.851 176.079 129.936 176.117 130.022 176.155C162.536 190.68 189.828 190.6 211.899 175.916M128.912 175.655C128.651 174.179 128.347 173.093 128 172.398M128.912 175.655L129.694 175.134M196.005 138.656C177.419 140.22 162.002 146.299 149.756 156.895M196.005 138.656C197.221 136.398 198.002 134.835 198.35 133.966M196.005 138.656L202.128 138.786M196.005 138.656C196.102 138.477 196.195 138.302 196.287 138.131C196.371 137.972 196.453 137.818 196.533 137.667C197.45 135.935 198.056 134.702 198.35 133.966M149.756 156.895C161.394 143.52 167.3 127.539 167.474 108.953M167.474 108.953C152.188 119.028 141.462 132.49 135.296 149.339M167.474 108.953L171.252 106.869M167.474 108.953L167.214 104.002M135.296 149.339C134.34 154.029 132.994 158.806 131.257 163.669M135.296 149.339C139.291 129.884 136.859 112.688 128 97.7491M131.257 163.669C130.562 167.404 130.041 171.226 129.694 175.134M131.257 163.669C130.302 166.536 129.216 169.445 128 172.398M131.257 163.669C130.923 165.464 130.629 167.28 130.375 169.115C130.186 170.488 130.018 171.873 129.873 173.269C129.868 173.321 129.863 173.372 129.857 173.424C129.856 173.436 129.855 173.447 129.854 173.459C129.83 173.691 129.807 173.923 129.784 174.156C129.76 174.41 129.736 174.665 129.713 174.92C129.711 174.935 129.71 174.95 129.709 174.965C129.706 174.99 129.704 175.015 129.702 175.04C129.699 175.071 129.696 175.103 129.694 175.134M131.257 163.669C130.685 165.386 130.066 167.118 129.401 168.865C129.121 169.598 128.834 170.334 128.538 171.073C128.362 171.514 128.182 171.955 128 172.398M129.694 175.134C129.78 174.526 129.867 173.961 129.954 173.44M129.694 175.134C129.698 175.102 129.703 175.071 129.707 175.039C129.711 175.014 129.714 174.989 129.718 174.964C129.72 174.951 129.722 174.938 129.724 174.925C129.758 174.686 129.793 174.454 129.828 174.229C129.87 173.956 129.912 173.693 129.954 173.44M171.252 106.869C178.808 103.308 190.49 100.789 206.297 99.3124M171.252 106.869C178.649 103.383 189.998 100.896 205.301 99.4074C205.631 99.3752 205.963 99.3436 206.297 99.3124M198.35 133.966C204.429 122.328 207.078 110.777 206.297 99.3124M198.35 133.966C204.253 122.666 206.922 111.448 206.356 100.311C206.339 99.9782 206.319 99.6453 206.297 99.3124M128 97.7491C119.141 112.688 116.753 129.884 120.835 149.339M128 97.7491C127.218 96.4463 126.48 95.2738 125.785 94.2316M128 97.7491C128.695 96.4463 129.433 95.2738 130.215 94.2316M128 97.7491C127.902 97.5851 127.804 97.4231 127.707 97.2632C127.604 97.0933 127.501 96.9258 127.4 96.7605C126.838 95.8462 126.3 95.0032 125.785 94.2316M128 97.7491C128.092 97.5765 128.185 97.4063 128.278 97.2383C128.372 97.0707 128.466 96.9055 128.561 96.7425C129.088 95.8351 129.64 94.9981 130.215 94.2316M120.835 149.339C122.398 153.855 123.657 158.632 124.613 163.669M120.835 149.339C114.581 132.49 103.812 119.028 88.526 108.953M124.613 163.669C125.655 166.536 126.784 169.445 128 172.398M124.613 163.669C125.394 167.404 125.959 171.226 126.306 175.134M124.613 163.669C125.229 165.365 125.876 167.075 126.553 168.801C126.85 169.556 127.152 170.314 127.46 171.075C127.638 171.515 127.818 171.956 128 172.398M124.613 163.669C124.985 165.447 125.308 167.245 125.581 169.062C125.788 170.433 125.967 171.816 126.117 173.211C126.123 173.263 126.128 173.315 126.134 173.367C126.137 173.399 126.141 173.43 126.144 173.461C126.168 173.693 126.192 173.925 126.215 174.157C126.24 174.411 126.264 174.665 126.287 174.919M128 172.398C127.653 173.093 127.349 174.179 127.088 175.655M211.899 175.916C218.499 171.486 226.533 162.671 236 149.469M211.899 175.916C218.363 171.578 226.202 163.033 235.416 150.281C235.61 150.012 235.805 149.742 236 149.469M236 149.469C226.533 142.955 215.242 139.394 202.128 138.786M236 149.469C235.725 149.28 235.449 149.094 235.171 148.909C225.876 142.751 214.862 139.377 202.128 138.786M125.785 174.873C124.656 173.571 123.006 171.92 120.835 169.923C118.49 168.099 113.626 163.756 106.244 156.895M125.785 174.873L127.088 175.655M125.785 174.873L125.916 173.44M106.244 156.895C93.9107 146.299 78.4946 140.22 59.9952 138.656M106.244 156.895C94.5187 143.52 88.6128 127.539 88.526 108.953M59.9952 138.656C71.7202 158.806 94.0844 171.139 127.088 175.655M59.9952 138.656L53.8721 138.786M59.9952 138.656C58.7793 136.398 57.9542 134.835 57.5199 133.966M59.9952 138.656C59.8985 138.477 59.8042 138.301 59.7125 138.131C59.6275 137.972 59.5446 137.818 59.4639 137.667C58.5356 135.935 57.8876 134.702 57.5199 133.966M127.088 175.655C93.9976 190.593 66.3354 190.68 44.1013 175.916M127.088 175.655C126.989 175.7 126.89 175.744 126.792 175.788C126.604 175.873 126.416 175.957 126.229 176.04C126.144 176.078 126.059 176.116 125.974 176.153C93.3765 190.594 66.0855 190.514 44.1013 175.916M127.088 175.655L126.306 175.134M125.916 173.44C126.089 173.961 126.22 174.526 126.306 175.134M125.916 173.44C126.004 173.706 126.081 173.982 126.147 174.27C126.195 174.48 126.237 174.696 126.273 174.918C126.274 174.92 126.274 174.922 126.275 174.924C126.281 174.963 126.287 175.001 126.293 175.039C126.297 175.071 126.302 175.102 126.306 175.134M126.306 175.134C126.304 175.103 126.301 175.071 126.298 175.04C126.294 175 126.291 174.959 126.287 174.919M88.526 108.953L84.6176 106.869M88.526 108.953L88.6562 104.002M53.8721 138.786C40.7576 139.394 29.4668 142.955 20 149.469M53.8721 138.786C41.1383 139.377 30.1239 142.751 20.8291 148.909C20.5513 149.093 20.2748 149.28 20 149.469M20 149.469C29.4668 162.671 37.5006 171.486 44.1013 175.916M20 149.469C20.1954 149.742 20.3902 150.012 20.5844 150.281C29.7979 163.033 37.6369 171.578 44.1013 175.916M20 149.469C20 149.469 20.0001 149.469 20 149.469ZM84.6176 106.869C77.1484 103.308 65.4668 100.789 49.573 99.3124M84.6176 106.869C77.3053 103.382 65.9558 100.895 50.5691 99.4069C50.2389 99.3749 49.9069 99.3434 49.573 99.3124M49.573 99.3124C48.8782 110.777 51.5272 122.328 57.5199 133.966M49.573 99.3124C49.5528 99.6455 49.5355 99.9787 49.5209 100.312C49.0349 111.448 51.7013 122.666 57.5199 133.966M125.785 94.2316C121.356 87.544 112.584 79.4668 99.4693 70M125.785 94.2316C121.448 87.6827 112.946 79.8011 100.279 70.587C100.011 70.3919 99.7411 70.1962 99.4693 70M99.4693 70C92.9554 79.4668 89.351 90.801 88.6562 104.002M99.4693 70C99.2802 70.2748 99.0936 70.5512 98.9094 70.8291C92.7486 80.1264 89.3309 91.1842 88.6562 104.002M130.215 94.2316C134.644 87.544 143.416 79.4668 156.531 70M130.215 94.2316C134.552 87.6827 143.054 79.8011 155.721 70.587C155.989 70.3919 156.259 70.1962 156.531 70M167.214 104.002C166.606 90.801 163.045 79.4668 156.531 70M167.214 104.002C166.623 91.1842 163.249 80.1265 157.091 70.8292C156.906 70.5512 156.72 70.2748 156.531 70M126.287 174.919C126.287 174.919 126.287 174.919 126.287 174.919ZM194.526 139.293L194.349 139.621L194.834 139.632C183.242 158.398 162.082 170.154 131.221 174.817L131.173 174.551C132.243 173.384 133.68 171.969 135.489 170.305C137.86 168.458 142.733 164.105 150.09 157.267C161.909 147.044 176.712 141.046 194.526 139.293ZM195.096 138.234C178.65 139.75 164.675 144.825 153.194 153.475C162.724 141.015 167.646 126.459 167.962 109.826L171.707 107.76C178.941 104.358 190.131 101.89 205.36 100.406C205.906 111.327 203.288 122.354 197.463 133.503L197.44 133.548L197.421 133.595C197.098 134.403 196.343 135.919 195.124 138.182L195.096 138.234ZM166.949 110.385C166.493 128.236 160.641 143.616 149.397 156.547C142.021 163.402 137.181 167.722 134.858 169.528L134.842 169.541L134.827 169.555C133.273 170.984 131.98 172.241 130.95 173.325L130.938 173.261L130.879 173.262C131.214 170.065 131.668 166.928 132.24 163.852L131.766 163.73C133.488 158.896 134.825 154.144 135.778 149.476C141.745 133.194 151.994 120.1 166.537 110.183L166.559 110.6L166.949 110.385ZM166.476 109.017C152.891 118.151 142.95 130.002 136.66 144.563C139.298 127.308 136.709 111.86 128.869 98.2449L128.882 98.2197C129.556 96.9562 130.268 95.8279 131.015 94.8316L131.032 94.8082L131.048 94.7838C135.281 88.3942 143.652 80.6058 156.28 71.4166C162.31 80.5352 165.632 91.4002 166.215 104.048L166.215 104.055L166.476 109.017ZM121.318 149.205C117.378 130.398 119.523 113.749 127.721 99.2285L128.051 99.7781L128.312 99.2883C136.49 113.804 138.665 130.444 134.806 149.239C133.857 153.897 132.52 158.643 130.794 163.479L130.308 163.353C129.608 165.453 128.837 167.578 127.996 169.727C127.134 167.57 126.319 165.437 125.553 163.328L125.082 163.462C124.127 158.455 122.873 153.703 121.318 149.205ZM127.131 98.2448C119.291 111.862 116.739 127.312 119.45 144.57C113.091 130.006 103.112 118.153 89.5246 109.017L89.6555 104.042C90.323 91.3972 93.688 80.534 99.7198 71.4165C112.348 80.6057 120.72 88.3942 124.952 94.7838L124.953 94.7863C125.634 95.8079 126.36 96.9604 127.131 98.2448ZM89.4934 110.204C104.033 120.125 114.319 133.223 120.364 149.508C121.915 153.99 123.166 158.733 124.117 163.737L123.634 163.874C124.281 166.964 124.777 170.114 125.124 173.326L125.058 173.334C124.027 172.248 122.731 170.988 121.173 169.555L121.158 169.541L121.142 169.528C118.819 167.722 113.979 163.401 106.603 156.546C95.2698 143.61 89.4158 128.223 89.0439 110.363L89.483 110.597L89.4934 110.204ZM88.0343 109.824C88.2748 126.459 93.1916 141.017 102.787 153.478C91.2446 144.828 77.2772 139.751 60.904 138.235L60.8757 138.182C59.6592 135.923 58.8409 134.372 58.4144 133.519L58.409 133.508C52.6679 122.359 50.0507 111.33 50.5178 100.407C65.8346 101.891 77.0214 104.36 84.1671 107.762L88.0343 109.824ZM61.4743 139.294C79.2046 141.048 94.0083 147.045 105.91 157.268C113.268 164.106 118.14 168.458 120.511 170.305C122.311 171.961 123.743 173.37 124.812 174.534L124.786 174.819C93.8379 170.157 72.675 158.4 61.1605 139.632L61.6506 139.621L61.4743 139.294ZM60.0056 139.656C71.6257 159.001 93.1253 171.01 124.365 175.767C92.4956 189.588 65.9912 189.25 44.6565 175.084C38.3502 170.851 30.6034 162.437 21.4138 149.722C30.5284 143.692 41.3473 140.37 53.906 139.786L60.0056 139.656ZM131.619 175.768C162.786 171.012 184.289 159.003 195.991 139.656L202.094 139.786C214.653 140.37 225.472 143.692 234.586 149.722C225.396 162.437 217.65 170.852 211.343 175.084C189.921 189.337 163.411 189.675 131.619 175.768Z" stroke="white" stroke-linecap="round"/>
</svg>
